<?xml version="1.0" standalone="no"?>
<!DOCTYPE svg PUBLIC "-//W3C//DTD SVG 20010904//EN"
 "http://www.w3.org/TR/2001/REC-SVG-20010904/DTD/svg10.dtd">
<svg version="1.0" xmlns="http://www.w3.org/2000/svg"
 width="758.000000pt" height="758.000000pt" viewBox="0 0 758.000000 758.000000"
 preserveAspectRatio="xMidYMid meet">
<metadata>
Created by potrace 1.11, written by Peter Selinger 2001-2013
</metadata>
<g transform="translate(0.000000,758.000000) scale(0.100000,-0.100000)"
fill="#000000" stroke="none">
<path d="M3320 7441 c-31 -4 -45 -11 -44 -21 0 -8 14 -111 29 -227 33 -241 18
-219 131 -207 l59 6 -17 207 c-9 113 -17 216 -17 229 -1 20 -6 22 -48 20 -27
0 -68 -4 -93 -7z"/>
<path d="M3790 6874 c0 -60 -3 -186 -7 -280 l-6 -171 123 -6 c360 -20 705
-112 1030 -278 199 -101 431 -263 578 -403 l63 -60 199 199 199 199 -71 66
c-249 227 -456 370 -748 516 -378 188 -807 301 -1223 321 l-137 6 0 -109z"/>
<path d="M3637 6403 c-16 -4 -17 -13 -12 -76 7 -90 35 -592 35 -629 0 -26 3
-28 45 -28 l45 0 0 369 0 370 -47 -1 c-27 -1 -56 -3 -66 -5z"/>
<path d="M3773 6403 c-10 -4 -13 -87 -13 -367 l0 -362 133 -12 c456 -40 845
-221 1160 -538 239 -239 395 -521 477 -856 41 -168 53 -294 47 -487 -5 -173
-22 -286 -61 -420 l-23 -80 339 -111 c186 -61 345 -113 352 -116 26 -10 94
281 122 523 12 103 15 187 11 333 -7 221 -23 343 -73 550 -46 187 -98 329
-189 515 -130 266 -280 473 -499 690 -306 304 -651 507 -1086 638 -132 40
-366 84 -490 92 -47 3 -110 7 -140 10 -30 2 -61 1 -67 -2z"/>
<path d="M3440 6384 c-58 -7 -132 -19 -166 -26 l-61 -13 79 -355 c43 -195 80
-355 81 -356 1 -1 47 5 102 13 55 8 115 17 133 19 l32 5 -1 72 c0 40 -8 203
-17 362 l-17 290 -30 2 c-16 0 -77 -5 -135 -13z"/>
<path d="M6156 6234 l-159 -163 75 -80 c199 -211 375 -467 515 -749 53 -107
101 -191 107 -189 6 3 100 41 209 86 109 44 201 81 205 81 9 0 117 -294 136
-370 8 -30 19 -68 26 -84 6 -16 9 -30 8 -31 -2 -1 -105 -28 -231 -60 -189 -48
-227 -61 -222 -74 55 -181 104 -635 91 -853 -4 -60 -3 -108 2 -108 39 0 458
-32 461 -36 14 -14 -30 -14 -234 1 -125 8 -229 14 -231 12 -2 -2 -7 -37 -10
-78 l-7 -74 189 -23 c104 -13 208 -26 231 -29 38 -5 42 -3 46 18 13 70 -7
-113 -24 -211 -191 -1134 -926 -2127 -1957 -2644 -384 -193 -796 -314 -1247
-368 -145 -17 -636 -17 -775 0 -546 67 -1053 237 -1480 495 -36 22 -68 41 -72
44 -5 2 -8 2 -8 -1 0 -11 259 -159 385 -221 578 -283 1231 -411 1860 -365 484
36 969 171 1394 387 351 179 632 384 921 673 227 227 385 427 540 681 741
1222 698 2769 -110 3948 -34 50 -66 91 -71 91 -5 0 -9 5 -9 11 0 6 -6 16 -12
23 -7 8 -20 24 -28 36 -8 12 -20 28 -26 34 -6 6 -46 54 -89 106 -85 102 -225
251 -234 249 -3 -1 -78 -75 -165 -165z m1211 -2006 c-3 -8 -6 -5 -6 6 -1 11 2
17 5 13 3 -3 4 -12 1 -19z m10 -115 c-3 -10 -5 -2 -5 17 0 19 2 27 5 18 2 -10
2 -26 0 -35z m10 -401 c-1 -53 -3 -7 -3 103 0 110 2 154 3 97 2 -57 2 -147 0
-200z m-10 -204 c-2 -13 -4 -3 -4 22 0 25 2 35 4 23 2 -13 2 -33 0 -45z"/>
<path d="M5782 5867 c-105 -106 -192 -196 -192 -201 0 -5 29 -40 65 -78 158
-167 306 -383 414 -602 68 -137 145 -338 171 -442 l13 -52 271 70 c149 38 272
71 273 71 5 6 -77 256 -124 372 -135 342 -336 665 -589 945 -54 60 -101 110
-104 110 -3 0 -92 -87 -198 -193z"/>
<path d="M6515 4543 c-137 -36 -251 -66 -252 -67 -2 -1 8 -56 21 -122 14 -65
30 -164 37 -219 16 -130 15 -451 -1 -585 -8 -58 -14 -121 -14 -140 l-1 -34
267 -50 c148 -27 270 -47 272 -45 9 9 36 223 47 370 12 171 6 381 -17 564 -14
115 -61 372 -70 387 -8 13 -27 9 -289 -59z"/>
<path d="M1563 3706 c-194 -12 -355 -25 -358 -28 -4 -4 1 -66 9 -140 130
-1068 910 -1942 1951 -2186 204 -47 193 -47 200 -9 19 113 105 690 103 692 -2
0 -64 16 -138 34 -224 54 -402 132 -591 260 -427 287 -723 755 -789 1251 -17
134 -20 150 -28 149 -4 -1 -165 -11 -359 -23z"/>
<path d="M473 3683 c15 -2 39 -2 55 0 15 2 2 4 -28 4 -30 0 -43 -2 -27 -4z"/>
<path d="M253 3673 c20 -2 54 -2 75 0 20 2 3 4 -38 4 -41 0 -58 -2 -37 -4z"/>
<path d="M138 3663 c6 -2 18 -2 25 0 6 3 1 5 -13 5 -14 0 -19 -2 -12 -5z"/>
<path d="M5483 3251 c-227 -661 -812 -1133 -1513 -1220 -94 -12 -334 -13 -423
-2 -53 7 -58 5 -62 -13 -21 -94 -105 -700 -99 -706 18 -18 279 -33 459 -27
267 9 465 44 715 127 743 244 1331 812 1602 1544 16 43 27 80 25 82 -2 2 -159
55 -351 118 -299 98 -348 112 -353 97z"/>
<path d="M6171 2937 c-178 -490 -536 -942 -983 -1239 l-98 -65 141 -237 c78
-130 146 -236 151 -236 18 0 230 144 338 230 135 106 384 355 490 490 156 197
299 429 401 651 52 115 132 319 127 324 -3 2 -450 149 -513 168 -18 6 -24 -5
-54 -86z"/>
<path d="M4985 1573 c-189 -105 -435 -198 -657 -247 -218 -49 -317 -59 -570
-60 -205 -1 -238 -3 -238 -16 0 -8 -11 -130 -25 -270 -16 -167 -21 -258 -15
-264 17 -17 497 -12 643 7 380 51 689 143 1022 307 99 49 188 95 198 102 17
13 9 29 -124 251 -78 130 -145 237 -148 236 -3 -1 -42 -21 -86 -46z"/>
</g>
</svg>
